<svg xmlns="http://www.w3.org/2000/svg" viewBox="0 0 300 300"><path fill="#44158F" d="M0 0h300v300H0z" class="logo-background-square"/><path fill="#fff" d="m21.684 186.062-1.514-2.839q-.567-1.04.757-1.64 1.262-.568 2.618-1.577 1.356-1.01 2.208-2.082.978-1.198 1.86-1.198h3.407q1.325 0 1.325 1.293v28.45q0 1.292-1.325 1.292h-3.438q-1.293 0-1.293-1.293v-20.501q0-.852.095-1.735h-.095q-.662.852-1.45 1.451-.82.6-1.64.946-1.01.442-1.515-.567Zm20.754 21.7h-4.069q-1.86 0-.788-1.578l7.16-10.345-6.309-9.147q-1.072-1.577.789-1.577h4.068q.978 0 1.451.884l3.344 5.803 3.343-5.803q.504-.884 1.482-.884h4.069q1.86 0 .757 1.577l-6.34 9.147 7.192 10.345q1.103 1.577-.757 1.577h-4.1q-.947 0-1.452-.851l-4.194-7.034-4.164 7.034q-.536.851-1.482.851Zm22.204-21.7-1.514-2.839q-.536-1.04.757-1.64 1.262-.568 2.618-1.577 1.356-1.01 2.208-2.082.978-1.198 1.86-1.198h3.439q1.293 0 1.293 1.293v28.45q0 1.292-1.293 1.292h-3.438q-1.293 0-1.293-1.293v-20.501q0-.852.063-1.735h-.063q-.694.852-1.483 1.451-.788.6-1.608.946-1.01.442-1.546-.567Zm38.038 21.7H99.4q-1.514 0-1.514-1.61V178.46q0-1.608 1.514-1.608h8.074q7.759 0 10.755 2.523 3.028 2.523 3.028 7.16 0 4.636-3.028 7.16-2.996 2.523-10.755 2.523h-3.28v9.935q0 1.608-1.514 1.608Zm1.514-25.643v8.831h3.249q4.32 0 5.866-1.04 1.546-1.01 1.546-3.375 0-2.397-1.546-3.407-1.545-1.009-5.866-1.009h-3.25Zm26.557 25.642h-3.438q-1.293 0-1.293-1.293v-20.06q0-1.293 1.293-1.293h3.438q1.293 0 1.293 1.294v20.06q0 1.292-1.293 1.292Zm0-25.957h-3.438q-1.293 0-1.293-1.293v-2.776q0-1.293 1.293-1.293h3.438q1.293 0 1.293 1.293v2.776q0 1.293-1.293 1.293Zm10.282 25.957h-4.069q-1.86 0-.788-1.577l7.16-10.345-6.309-9.147q-1.072-1.577.789-1.577h4.069q.977 0 1.45.884l3.344 5.803 3.343-5.803q.505-.884 1.482-.884h4.07q1.86 0 .788 1.577l-6.34 9.147 7.16 10.345q1.104 1.577-.757 1.577h-4.1q-.947 0-1.451-.851l-4.195-7.034-4.164 7.034q-.536.851-1.482.851Zm19.082-11.323q0-5.456 2.744-8.61 2.712-3.123 7.696-3.123 5.772 0 8.579 2.965 2.807 2.965 2.807 9.557 0 1.293-1.199 1.293h-14.224q.315 3.596 1.766 4.51 1.42.947 3.28.947 1.798 0 2.744-.474.946-.473 1.609-1.293.725-.946 1.798-.315l2.144 1.325q1.293.757.379 1.86-1.325 1.546-3.091 2.334-1.766.789-5.583.789-6.182 0-8.8-3.154-2.649-3.154-2.649-8.61Zm6.403-2.207h9.399q0-2.334-1.167-3.817-1.167-1.482-3.722-1.482-2.019 0-3.217 1.42-1.167 1.418-1.293 3.879Zm24.854 13.53h-3.438q-1.294 0-1.294-1.293v-25.453q0-.978.442-1.766l1.672-2.933q.473-.82 1.135-.82h1.483q1.293 0 1.293 1.293v29.68q0 1.292-1.293 1.292Zm21.195-15.454q0-7.444 3.88-11.828 3.879-4.384 10.975-4.384 4.29 0 6.75 1.104t4.29 3.406q1.135 1.42-.064 2.176l-2.46 1.609q-1.072.725-2.302-.63-1.01-1.105-2.555-1.83-1.546-.726-3.438-.726-4.51 0-6.434 2.84-1.924 2.87-1.924 8.263t1.924 8.232q1.924 2.87 6.434 2.87 2.208 0 3.785-.442 1.608-.441 3.028-1.608v-3.848h-4.668q-1.609 0-1.609-1.42v-2.523q0-1.42 1.609-1.42h9.367q1.609 0 1.609 1.42v10.945q-3.028 2.208-6.088 3.09-3.09.884-7.254.884-7.002 0-10.944-4.384-3.911-4.353-3.911-11.796Zm38.857 15.454h-3.28q-1.514 0-1.514-1.608V178.46q0-1.608 1.514-1.608h3.28q1.483 0 1.483 1.608v27.693q0 1.608-1.483 1.608Zm13.184 0h-3.28q-1.514 0-1.514-1.608V178.46q0-1.608 1.514-1.608h17.063q1.609 0 1.609 1.388v2.554q0 1.388-1.609 1.388h-12.269v7.507h10.503q1.609 0 1.609 1.42v2.522q0 1.42-1.609 1.42h-10.503v11.102q0 1.608-1.514 1.608Z"/><g fill="#14D9D9" transform="translate(117.009 91.513) scale(2.06195)"><circle cx="16" cy="16.021" r="8.066"/><path d="M32 0H0v32h32V0zM16 26.086c-5.551 0-10.066-4.516-10.066-10.065 0-5.55 4.516-10.066 10.066-10.066 5.55 0 10.065 4.516 10.065 10.066.001 5.55-4.515 10.065-10.065 10.065z"/></g></svg>
